# AST/ASF file generated using VICON BodyLanguage
# -----------------------------------------------
:version 1.10
:name VICON
:units
  mass 1.0
  length 0.45
  angle deg
:documentation
   .ast/.asf automatically generated from VICON data using
   VICON BodyBuilder and BodyLanguage model FoxedUp or BRILLIANT.MOD
:root
   order TX TY TZ RX RY RZ
   axis XYZ
   position 0 0 0  
   orientation 0 0 0 
:bonedata
  begin
     id 1 
     name lhipjoint
     direction 0.635376 -0.686425 0.353719 
     length 2.47244 
     axis 0 0 0  XYZ
  end
  begin
     id 2 
     name lfemur
     direction 0.34202 -0.939693 0  
     length 7.25268  
     axis 0 0 20  XYZ
    dof rx ry rz
    limits (-160.0 20.0)
           (-70.0 70.0)
           (-60.0 70.0)
  end
  begin
     id 3 
     name ltibia
     direction 0.34202 -0.939693 0   
     length 7.6767   
     axis 0 0 20   XYZ
    dof rx
    limits (-10.0 170.0)
  end
  begin
     id 4 
     name lfoot
     direction 0.0803374 -0.220725 0.972022   
     length 2.22945   
     axis -90 7.62852e-016 20   XYZ
    dof rx rz
    limits (-45.0 90.0)
           (-70.0 20.0)
  end
  begin
     id 5 
     name ltoes
     direction 1.53579e-011 -4.21994e-011 1   
     length 1.11848   
     axis -90 7.62852e-016 20   XYZ
    dof rx
    limits (-90.0 20.0)
  end
  begin
     id 6 
     name rhipjoint
     direction -0.664428 -0.664335 0.342336   
     length 2.55466  
     axis 0 0 0  XYZ 
  end
  begin
     id 7 
     name rfemur
     direction -0.34202 -0.939693 0   
     length 6.83172   
     axis 0 0 -20   XYZ
    dof rx ry rz
    limits (-160.0 20.0)
           (-70.0 70.0)
           (-70.0 60.0)
  end
  begin
     id 8 
     name rtibia
     direction -0.34202 -0.939693 0   
     length 7.62692   
     axis 0 0 -20   XYZ
    dof rx
    limits (-10.0 170.0)
 end
 begin
     id 9 
     name rfoot
     direction -0.0949276 -0.260811 0.960711   
     length 2.19684  
     axis -90 -7.62852e-016 -20   XYZ
    dof rx rz
    limits (-45.0 90.0)
           (-20.0 70.0)
  end
  begin
     id 10 
     name rtoes
     direction -1.53543e-011 -4.2183e-011 1   
     length 1.09848   
     axis -90 -7.62852e-016 -20   XYZ
    dof rx
    limits (-90.0 20.0)
  end
  begin
     id 11 
     name lowerback
     direction 0.0118782 0.999815 -0.0151555   
     length 2.15772   
     axis 0 0 0   XYZ
    dof rx ry rz
    limits (-20.0 45.0)
           (-30.0 30.0)
           (-30.0 30.0)
  end
  begin
     id 12 
     name upperback
     direction 0.00130825 0.999065 0.0432113   
     length 2.14863   
     axis 0 0 0   XYZ
    dof rx ry rz
    limits (-20.0 45.0)
           (-30.0 30.0)
           (-30.0 30.0)
  end
  begin
     id 13 
     name thorax
     direction -0.00347005 0.998773 0.0494011   
     length 2.14936   
     axis 0 0 0   XYZ
    dof rx ry rz
    limits (-20.0 45.0)
           (-30.0 30.0)
           (-30.0 30.0)
  end
  begin
     id 14 
     name lowerneck
     direction -0.0262159 0.99424 0.103921   
     length 1.69373   
     axis 0 0 0   XYZ
    dof rx ry rz
    limits (-20.0 45.0)
           (-30.0 30.0)
           (-30.0 30.0)
  end
  begin
     id 15 
     name upperneck
     direction 0.0353511 0.977394 -0.20845   
     length 1.70857   
     axis 0 0 0   XYZ
    dof rx ry rz
    limits (-20.0 45.0)
           (-30.0 30.0)
           (-30.0 30.0)
  end
  begin
     id 16
     name head
     direction 0.0139214 0.996594 -0.0812836  
     length 1.72777  
     axis 0 0 0   XYZ
    dof rx ry rz
    limits (-20.0 45.0)
           (-30.0 30.0)
           (-30.0 30.0)
  end
  begin
     id 17 
     name lclavicle
     direction 0.841247 0.537205 -0.0609508  
     length 3.55371  
     axis 0 0 0   XYZ
    dof ry rz
    limits (-20.0 10.0)
           (0.0 20.0)
  end
  begin
     id 18 
     name lhumerus
     direction 1 -4.48964e-011 1.60116e-018   
     length 4.91377   
     axis -180 -30 -90   XYZ
    dof rx ry rz
    limits (-60.0 90.0)
           (-90.0 90.0)
           (-90.0 90.0)
  end
  begin
     id 19
     name lradius
     direction 1 -4.48989e-011 -8.93847e-027   
     length 3.00291   
     axis -180 -30 -90   XYZ
    dof rx
    limits (-10.0 170.0)
  end
  begin
     id 20
     name lwrist
     direction 1 -4.48932e-011 -7.31504e-027   
     length 1.50145   
     axis 5.74121e-015 90 90   XYZ
    dof ry
    limits (-180.0 0.0)
 end
  begin
     id 21 
     name lhand
     direction 1 -4.48971e-011 -1.46301e-026   
     length 0.450922   
     axis 9.33524e-015 90 90   XYZ
    dof rx rz
    limits (-90.0 90.0)
           (-45.0 45.0)
  end
  begin
     id 22 
     name lfingers
     direction 1 -4.49039e-011 -2.92602e-026   
     length 0.363545   
     axis 1.86705e-014 90 90   XYZ
    dof rx
    limits (0.0 90.0)
  end
  begin
     id 23
     name lthumb
     direction 0.707107 -6.34941e-011 0.707107   
     length 0.52198   
     axis -90 45 2.85299e-015   XYZ
    dof rx rz
    limits (-45.0 45.0)
           (-45.0 45.0)
  end
  begin
     id 24 
     name rclavicle
     direction -0.825079 0.56158 -0.0622297   
     length 3.39909  
     axis 0 0 0   XYZ 
    dof ry rz
    limits (-10.0 20.0)
           (-20.0 0.0)
  end
  begin
     id 25 
     name rhumerus
     direction -1 -4.48965e-011 1.61691e-027  
     length 4.86725   
     axis -180 30 90   XYZ
    dof rx ry rz
    limits (-90.0 60.0)
           (-90.0 90.0)
           (-90.0 90.0)
  end
  begin
     id 26 
     name rradius
     direction -1 -4.48964e-011 -2.25776e-027   
     length 3.17144   
     axis -180 30 90   XYZ
    dof rx
    limits (-10.0 170.0)
  end
  begin
     id 27 
     name rwrist
     direction -1 -4.48961e-011 -7.31504e-027   
     length 1.58572   
     axis 5.74121e-015 -90 -90   XYZ
    dof ry
    limits (-180.0 0.0)
  end
  begin
     id 28
     name rhand
     direction -1 -4.49013e-011 -1.46301e-026   
     length 0.419368   
     axis 9.33524e-015 -90 -90   XYZ
    dof rx rz
    limits (-90.0 90.0)
           (-45.0 45.0)
  end
  begin
     id 29
     name rfingers
     direction -1 -4.489e-011 -2.92602e-026   
     length 0.338105   
     axis 1.86705e-014 -90 -90   XYZ
    dof rx
    limits (0.0 90.0)
  end
  begin
     id 30
     name rthumb
     direction -0.707107 -6.35022e-011 0.707107   
     length 0.485453   
     axis -90 -45 -2.85299e-015   XYZ
    dof rx rz
    limits (-45.0 45.0)
           (-45.0 45.0)
  end
:hierarchy
  begin
    root lhipjoint rhipjoint lowerback
    lhipjoint lfemur
    lfemur ltibia
    ltibia lfoot
    lfoot ltoes
    rhipjoint rfemur
    rfemur rtibia
    rtibia rfoot
    rfoot rtoes
    lowerback upperback
    upperback thorax
    thorax lowerneck lclavicle rclavicle
    lowerneck upperneck
    upperneck head
    lclavicle lhumerus
    lhumerus lradius
    lradius lwrist
    lwrist lhand lthumb
    lhand lfingers
    rclavicle rhumerus
    rhumerus rradius
    rradius rwrist
    rwrist rhand rthumb
    rhand rfingers
  end

#!OML:ASF H:\Swim 2\Project 1\Capture day 1\Session 1\male.ASF
:FULLY-SPECIFIED
:DEGREES
1050
root 2.04485 15.213 10.5089 114.312 -85.9709 -14.6932
lowerback -20.4358 6.32842 4.23728
upperback -11.2899 7.20052 -2.97107
thorax -0.00610851 3.11174 -4.06703
lowerneck -14.7015 -5.89182 -6.82065
upperneck -10.2358 -6.91765 12.9163
head 0.0497079 -3.47728 4.72549
rclavicle -1.27222e-014 -3.65764e-014
rhumerus 0.928614 34.8748 -70.4903
rradius 126.53
rwrist -30.0543
rhand -25.7294 13.0288
rfingers 7.12502
rthumb 0.80712 -16.9494
lclavicle -1.27222e-014 -3.65764e-014
lhumerus 57.6824 -20.1156 47.3356
lradius 117.872
lwrist 76.0696
lhand -36.7028 -17.8434
lfingers 7.12502
lthumb -9.78787 11.9091
rfemur -72.2247 -19.3995 -6.76667
rtibia 105.505
rfoot -12.6163 -4.3901
rtoes 1.9615
lfemur -61.0841 25.9371 -6.44991
ltibia 100.017
lfoot -17.1481 8.08156
ltoes -2.39322
1051
root 2.05991 15.2022 10.4891 115.719 -85.9037 -16.2616
lowerback -20.2355 6.34828 4.17056
upperback -11.1682 7.26144 -2.92777
thorax 0.021189 3.1579 -3.97998
lowerneck -14.7096 -5.94843 -6.91983
upperneck -9.74585 -6.99352 13.1009
head 0.217702 -3.48834 4.78146
rclavicle -4.6118e-014 1.19271e-014
rhumerus 3.01388 34.4045 -69.7984
rradius 126.906
rwrist -30.3652
rhand -26.3964 12.1651
rfingers 7.12502
rthumb 0.162897 -17.8146
lclavicle -4.6118e-014 1.19271e-014
lhumerus 58.6963 -19.8135 48.4557
lradius 117.583
lwrist 74.8501
lhand -37.3602 -19.7321
lfingers 7.12502
lthumb -10.4221 9.98956
rfemur -70.8823 -18.2292 -7.09816
rtibia 102.634
rfoot -12.5107 -5.51444
rtoes 2.47145
lfemur -59.6427 25.4315 -6.12345
ltibia 96.745
lfoot -17.0822 9.94192
ltoes -1.56007
1052
root 2.07911 15.1915 10.4698 116.765 -85.8327 -17.4044
lowerback -20.0682 6.36711 4.11808
upperback -11.0604 7.31507 -2.88849
thorax 0.0505519 3.19819 -3.90506
lowerneck -14.7444 -6.01163 -7.03323
upperneck -9.20648 -7.08009 13.276
head 0.405447 -3.50129 4.83468
rclavicle 6.52014e-014 4.6118e-014
rhumerus 5.15029 33.8083 -68.997
rradius 127.177
rwrist -30.6022
rhand -27.0073 11.2415
rfingers 7.12502
rthumb -0.42718 -18.7378
lclavicle 6.52014e-014 4.6118e-014
lhumerus 59.8071 -19.6441 49.2317
lradius 117.074
lwrist 73.8594
lhand -38.272 -24.9317
lfingers 7.12502
lthumb -11.3016 4.74382
rfemur -69.6438 -17.176 -7.38477
rtibia 99.7109
rfoot -12.3454 -6.59368
rtoes 3.04778
lfemur -58.3318 24.9425 -5.82487
ltibia 93.4098
lfoot -17.0505 11.7247
ltoes -0.978257
1053
root 2.10139 15.1804 10.4515 117.381 -85.7553 -18.06
lowerback -19.9317 6.38808 4.08818
upperback -10.9645 7.36475 -2.85469
thorax 0.0844086 3.2342 -3.84763
lowerneck -14.8244 -6.082 -7.19959
upperneck -8.59339 -7.1726 13.4675
head 0.625396 -3.51091 4.89888
rclavicle 2.8625e-014 3.65764e-014
rhumerus 7.30592 33.0642 -68.1012
rradius 127.345
rwrist -30.7621
rhand -27.6052 10.3406
rfingers 7.12502
rthumb -1.0046 -19.6368
lclavicle 2.8625e-014 3.65764e-014
lhumerus 60.9519 -19.4225 50.0014
lradius 116.577
lwrist 72.9386
lhand -38.9084 -29.4918
lfingers 7.12502
lthumb -11.9154 0.149124
rfemur -68.48 -16.2322 -7.63147
rtibia 96.7299
rfoot -12.1276 -7.62191
rtoes 3.74541
lfemur -57.1262 24.4559 -5.53261
ltibia 90.0111
lfoot -17.0516 13.4242
ltoes -0.561216
1054
root 2.12553 15.1688 10.4342 117.457 -85.6865 -18.1396
lowerback -19.803 6.40082 4.07248
upperback -10.8735 7.4005 -2.83402
thorax 0.118489 3.26181 -3.81478
lowerneck -14.9712 -6.15242 -7.3313
upperneck -7.92199 -7.27441 13.6193
head 0.870293 -3.52218 4.94238
rclavicle 5.40694e-014 2.70347e-014
rhumerus 9.46861 32.1741 -67.159
rradius 127.39
rwrist -30.8222
rhand -28.2043 9.55455
rfingers 7.12502
rthumb -1.58321 -20.4193
lclavicle 5.40694e-014 2.70347e-014
lhumerus 62.1306 -19.1321 50.8023
lradius 116.128
lwrist 72.0139
lhand -39.312 -32.5153
lfingers 7.12502
lthumb -12.3045 -2.89737
rfemur -67.3453 -15.3942 -7.86232
rtibia 93.6862
rfoot -11.8582 -8.58393
rtoes 4.56861
lfemur -55.993 23.9489 -5.24576
ltibia 86.546
lfoot -17.0623 15.0696
ltoes -0.286691
1055
root 2.15039 15.1567 10.4181 116.91 -85.631 -17.5844
lowerback -19.6616 6.40071 4.06781
upperback -10.7805 7.41832 -2.82257
thorax 0.148857 3.27975 -3.80279
lowerneck -15.1732 -6.22179 -7.39485
upperneck -7.21446 -7.38827 13.7046
head 1.12937 -3.53887 4.95202
rclavicle -3.81667e-014 2.3059e-014
rhumerus 11.6143 31.1494 -66.1898
rradius 127.317
rwrist -30.8281
rhand -28.843 9.00551
rfingers 7.12502
rthumb -2.20012 -20.9629
lclavicle -3.81667e-014 2.3059e-014
lhumerus 63.3142 -18.7277 51.7555
lradius 115.791
lwrist 71.0323
lhand -39.4722 -32.663
lfingers 7.12502
lthumb -12.459 -3.05435
rfemur -66.1916 -14.6485 -8.09129
rtibia 90.5709
rfoot -11.5282 -9.46309
rtoes 5.50629
lfemur -54.8908 23.4048 -4.94845
ltibia 83.013
lfoot -17.0639 16.6586
ltoes -0.0855736
1056
root 2.17524 15.144 10.4025 115.934 -85.5887 -16.6041
lowerback -19.4968 6.38457 4.06035
upperback -10.6814 7.41695 -2.81264
thorax 0.172054 3.28837 -3.79684
lowerneck -15.4214 -6.28716 -7.39026
upperneck -6.47906 -7.50953 13.7148
head 1.3978 -3.55936 4.92589
rclavicle -1.11319e-014 -3.10104e-014
rhumerus 13.7346 30.0141 -65.2034
rradius 127.153
rwrist -30.7951
rhand -29.4137 8.44206
rfingers 7.12502
rthumb -2.75122 -21.5199
lclavicle -1.11319e-014 -3.10104e-014
lhumerus 64.4791 -18.1884 52.9147
lradius 115.576
lwrist 69.9477
lhand -39.3562 -29.5802
lfingers 7.12502
lthumb -12.3472 0.0352307
rfemur -65.0033 -13.9634 -8.32913
rtibia 87.381
rfoot -11.1079 -10.268
rtoes 6.47894
lfemur -53.7838 22.8355 -4.62834
ltibia 79.4142
lfoot -17.0401 18.1559
ltoes 0.149495
1057
root 2.19927 15.1308 10.3876 114.404 -85.563 -15.0887
lowerback -19.2985 6.34064 4.05864
upperback -10.5735 7.3794 -2.80073
thorax 0.184564 3.27872 -3.80226
lowerneck -15.7 -6.33522 -7.30391
upperneck -5.72288 -7.62224 13.6453
head 1.6687 -3.57687 4.86214
rclavicle 3.49861e-014 2.06736e-014
rhumerus 15.8363 28.8276 -64.2337
rradius 126.89
rwrist -30.8266
rhand -30.0186 8.07434
rfingers 7.12502
rthumb -3.33539 -21.8793
lclavicle 3.49861e-014 2.06736e-014
lhumerus 65.6349 -17.5778 54.1365
lradius 115.384
lwrist 68.7456
lhand -39.0025 -25.0008
lfingers 7.12502
lthumb -12.006 4.63485
rfemur -63.7499 -13.3315 -8.58445
rtibia 84.1115
rfoot -10.5597 -11.0125
rtoes 7.46422
lfemur -52.6503 22.213 -4.27241
ltibia 75.7559
lfoot -16.975 19.5259
ltoes 0.5194
1058
root 2.22255 15.1171 10.3732 112.433 -85.5421 -13.1376
lowerback -19.0851 6.27546 4.05719
upperback -10.4619 7.31359 -2.77943
thorax 0.189395 3.25477 -3.80502
lowerneck -15.9919 -6.37172 -7.18606
upperneck -4.93993 -7.72631 13.5241
head 1.9449 -3.59014 4.77803
rclavicle -2.70347e-014 -3.02153e-014
rhumerus 17.9087 27.5989 -63.2697
rradius 126.56
rwrist -30.9806
rhand -30.6144 7.74704
rfingers 7.12502
rthumb -3.9108 -22.1968
lclavicle -2.70347e-014 -3.02153e-014
lhumerus 66.8023 -16.9655 55.2722
lradius 115.128
lwrist 67.5038
lhand -38.5726 -20.7264
lfingers 7.12502
lthumb -11.5915 8.93305
rfemur -62.4516 -12.7345 -8.84949
rtibia 80.7664
rfoot -9.83949 -11.7329
rtoes 8.42867
lfemur -51.4938 21.5364 -3.86212
ltibia 72.0486
lfoot -16.8657 20.7147
ltoes 1.10069
1059
root 2.2449 15.1027 10.3594 110.109 -85.5181 -10.8355
lowerback -18.8628 6.18849 4.06531
upperback -10.3481 7.21653 -2.7483
thorax 0.188518 3.2144 -3.80976
lowerneck -16.2941 -6.38921 -7.0745
upperneck -4.11505 -7.80651 13.3843
head 2.2325 -3.58989 4.69114
rclavicle 8.5875e-014 2.38542e-015
rhumerus 19.9571 26.3618 -62.318
rradius 126.172
rwrist -31.3563
rhand -31.279 7.55753
rfingers 7.12502
rthumb -4.55251 -22.3736
lclavicle 8.5875e-014 2.38542e-015
lhumerus 67.9762 -16.3421 56.3024
lradius 114.802
lwrist 66.2486
lhand -38.1117 -16.8379
lfingers 7.12502
lthumb -11.147 12.846
rfemur -61.1127 -12.1556 -9.12441
rtibia 77.3497
rfoot -8.92845 -12.4576
rtoes 9.3979
lfemur -50.3168 20.7976 -3.38955
ltibia 68.3076
lfoot -16.6792 21.7189
ltoes 1.80491
1060
root 2.26642 15.0875 10.3462 107.393 -85.4905 -8.12855
lowerback -18.651 6.08556 4.077
upperback -10.2361 7.09593 -2.71178
thorax 0.187976 3.16149 -3.8146
lowerneck -16.6024 -6.39285 -6.9773
upperneck -3.24936 -7.86794 13.23
head 2.53188 -3.57893 4.60391
rclavicle 1.00187e-013 5.48646e-014
rhumerus 21.9692 25.0884 -61.3729
rradius 125.754
rwrist -31.9349
rhand -31.9329 7.27451
rfingers 7.12502
rthumb -5.1839 -22.6421
lclavicle 1.00187e-013 5.48646e-014
lhumerus 69.1915 -15.7937 56.9987
lradius 114.32
lwrist 65.2632
lhand -38.1346 -15.4654
lfingers 7.12502
lthumb -11.1691 14.2173
rfemur -59.7471 -11.5977 -9.41138
rtibia 73.8697
rfoot -7.82466 -13.2223
rtoes 10.3682
lfemur -49.1418 19.968 -2.85639
ltibia 64.5487
lfoot -16.3998 22.5648
ltoes 2.54346
1061
root 2.28734 15.0711 10.3338 104.484 -85.4396 -5.21045
lowerback -18.4541 5.97731 4.11411
upperback -10.1268 6.96227 -2.67047
thorax 0.192516 3.10056 -3.8296
lowerneck -16.9212 -6.38503 -6.9594
upperneck -2.33193 -7.90383 13.1129
head 2.85216 -3.55148 4.54353
rclavicle 5.725e-014 -1.59028e-014
rhumerus 23.9389 23.7558 -60.4245
rradius 125.335
rwrist -32.7266
rhand -32.5723 6.78681
rfingers 7.12502
rthumb -5.80127 -23.1138
lclavicle 5.725e-014 -1.59028e-014
lhumerus 70.4148 -15.2218 57.5925
lradius 113.784
lwrist 64.3191
lhand -38.2714 -14.1713
lfingers 7.12502
lthumb -11.301 15.5043
rfemur -58.3656 -11.0385 -9.69955
rtibia 70.3333
rfoot -6.56475 -14.0508
rtoes 11.384
lfemur -47.9713 19.0451 -2.24321
ltibia 60.7923
lfoot -16.0508 23.2951
ltoes 3.24071
1062
root 2.30799 15.0537 10.322 101.459 -85.3734 -2.16038
lowerback -18.2664 5.86784 4.16475
upperback -10.0175 6.82428 -2.63487
thorax 0.203038 3.03677 -3.8578
lowerneck -17.2563 -6.37106 -6.97011
upperneck -1.39233 -7.92728 13.0025
head 3.18312 -3.51705 4.4917
rclavicle -1.43125e-014 -5.56597e-015
rhumerus 25.8651 22.3388 -59.4701
rradius 124.911
rwrist -33.6795
rhand -33.2245 6.07647
rfingers 7.12502
rthumb -6.43098 -23.8059
lclavicle -1.43125e-014 -5.56597e-015
lhumerus 71.6642 -14.6327 58.0679
lradius 113.185
lwrist 63.4501
lhand -38.512 -12.9852
lfingers 7.12502
lthumb -11.533 16.6775
rfemur -56.9719 -10.4726 -10.0038
rtibia 66.7531
rfoot -5.20224 -14.9542
rtoes 12.5074
lfemur -46.8156 18.0161 -1.56306
ltibia 57.0592
lfoot -15.641 23.9858
ltoes 3.78124
1063
root 2.32876 15.0358 10.3108 98.3958 -85.2899 0.93312
lowerback -18.0708 5.76524 4.22648
upperback -9.9049 6.69491 -2.60717
thorax 0.21539 2.9772 -3.89877
lowerneck -17.5916 -6.36201 -6.98029
upperneck -0.471304 -7.95555 12.8835
head 3.50982 -3.4873 4.43805
rclavicle 8.26944e-014 5.00937e-014
rhumerus 27.7413 20.8303 -58.5016
rradius 124.448
rwrist -34.7527
rhand -33.9638 5.3532
rfingers 7.12502
rthumb -7.14466 -24.5062
lclavicle 8.26944e-014 5.00937e-014
lhumerus 72.948 -14.0376 58.438
lradius 112.508
lwrist 62.6884
lhand -38.8271 -11.9492
lfingers 7.12502
lthumb -11.8369 17.6962
rfemur -55.5619 -9.88625 -10.3261
rtibia 63.1418
rfoot -3.80072 -15.9421
rtoes 13.7624
lfemur -45.6728 16.8733 -0.813613
ltibia 53.3728
lfoot -15.2194 24.6882
ltoes 4.1715
